# xmcd
#
# Track frame offsets:
#	150
#	9792
#	21281
#	31785
#	43143
#	53547
#	64161
#	74226
#	84422
#	95678
#	107696
#	121581
#	132120
#	144783
#	154954
#	165091
#
# Disc length: 2331 seconds
#
# Revision: 0
# Processed by: cddbd v1.4PL0 Copyright (c) Steve Scherf et al.
# Submitted via: EasyCDDAExtractor 4.6.9.1
#
DISCID=c2091910
DTITLE=Chuck Wagon Gang - Greatest Hits Vol 1
DYEAR=1990
DGENRE=Gospel
TTITLE0=The Joy Of Heaven
TTITLE1=Amazing Grace
TTITLE2=Keep On The Sunny Side
TTITLE3=A Beautiful Life
TTITLE4=The Glory Land Way
TTITLE5=Echoes From The Burning Bush
TTITLE6=Standing On The Promises
TTITLE7=I'll Fly Away
TTITLE8=Tattlers Wagon
TTITLE9=Whispering Hope
TTITLE10=He Will Set Your Fields on Fire
TTITLE11=Drifting Along
TTITLE12=Looking For A City
TTITLE13=When the Roll Is Called Up Yonder
TTITLE14=I Know That My Redeemer Lives 
TTITLE15=Keep The Fire Burning
EXTD=
EXTT0=
EXTT1=
EXTT2=
EXTT3=
EXTT4=
EXTT5=
EXTT6=
EXTT7=
EXTT8=
EXTT9=
EXTT10=
EXTT11=
EXTT12=
EXTT13=
EXTT14=
EXTT15=
PLAYORDER=
